<svg width="24" height="18" viewBox="0 0 24 18" fill="none" xmlns="http://www.w3.org/2000/svg">
<path d="M4.2308 16.3767C4.25418 16.4752 4.29726 16.5681 4.35746 16.6496C4.41765 16.7311 4.49371 16.7996 4.58107 16.8509C4.66842 16.9023 4.76525 16.9354 4.86574 16.9483C4.96624 16.9613 5.06831 16.9538 5.16582 16.9262C9.63668 15.6918 14.3584 15.6914 18.8295 16.925C18.927 16.9525 19.029 16.96 19.1295 16.947C19.2299 16.9341 19.3267 16.9009 19.4141 16.8496C19.5014 16.7983 19.5774 16.7299 19.6376 16.6484C19.6978 16.567 19.7409 16.4742 19.7643 16.3756L22.1539 6.22092C22.1859 6.08498 22.1793 5.9428 22.1348 5.81041C22.0904 5.67802 22.0098 5.56066 21.9023 5.47157C21.7948 5.38247 21.6645 5.32518 21.5261 5.30613C21.3878 5.28708 21.2468 5.30704 21.1192 5.36376L16.377 7.47142C16.2058 7.54753 16.0122 7.55677 15.8345 7.49734C15.6568 7.43791 15.5078 7.3141 15.4168 7.1503L12.6556 2.1802C12.5907 2.06328 12.4956 1.96586 12.3803 1.89803C12.2651 1.8302 12.1337 1.79443 12 1.79443C11.8662 1.79443 11.7349 1.8302 11.6196 1.89803C11.5044 1.96586 11.4093 2.06328 11.3444 2.1802L8.58321 7.1503C8.49221 7.3141 8.34318 7.43791 8.16547 7.49734C7.98775 7.55677 7.79423 7.54753 7.62299 7.47142L2.88004 5.36345C2.75245 5.30674 2.61156 5.28677 2.47323 5.3058C2.3349 5.32483 2.20464 5.3821 2.09709 5.47115C1.98955 5.56021 1.909 5.67751 1.86452 5.80987C1.82003 5.94222 1.81338 6.08437 1.84531 6.2203L4.2308 16.3767Z" stroke="white" stroke-width="2" stroke-linecap="round" stroke-linejoin="round"/>
</svg>
