<svg width="22" height="20" viewBox="0 0 22 20" fill="none" xmlns="http://www.w3.org/2000/svg">
<path d="M11.3334 18.25C11.3334 18.25 1.95837 13 1.95837 6.62501C1.95856 5.49826 2.34899 4.40635 3.06326 3.53493C3.77753 2.66351 4.77157 2.06636 5.87636 1.84501C6.98116 1.62367 8.12851 1.79179 9.12336 2.32079C10.1182 2.84979 10.8991 3.70702 11.3334 4.74673L11.3334 4.74673C11.7676 3.70702 12.5485 2.84979 13.5434 2.32079C14.5382 1.79179 15.6856 1.62367 16.7904 1.84501C17.8952 2.06636 18.8892 2.66351 19.6035 3.53493C20.3178 4.40635 20.7082 5.49826 20.7084 6.62501C20.7084 13 11.3334 18.25 11.3334 18.25Z" stroke="white" stroke-width="2" stroke-linecap="round" stroke-linejoin="round"/>
</svg>
